<svg class="arrow-btn" xmlns="http://www.w3.org/2000/svg" width="62" height="62" viewBox="0 0 62 62" fill="none">
            <g clip-path="url(#clip0_2344_192)">
                <path d="M31 0C13.9069 0 0 13.9069 0 31C0 48.0931 13.9069 62 31 62C48.0931 62 62 48.0931 62 31C62 13.9069 48.0931 0 31 0ZM31 58.125C16.043 58.125 3.875 45.957 3.875 31C3.875 16.043 16.043 3.875 31 3.875C45.957 3.875 58.125 16.043 58.125 31C58.125 45.957 45.957 58.125 31 58.125ZM43.9948 29.6302C44.7519 30.3873 44.7519 31.6132 43.9948 32.3698L34.3073 42.0573C33.929 42.4356 33.433 42.625 32.9375 42.625C32.442 42.625 31.946 42.4356 31.5677 42.0573C30.8106 41.3002 30.8106 40.0743 31.5677 39.3177L37.9479 32.9375H19.375C18.305 32.9375 17.4375 32.071 17.4375 31C17.4375 29.929 18.305 29.0625 19.375 29.0625H37.9479L31.5677 22.6823C30.8106 21.9252 30.8106 20.6993 31.5677 19.9427C32.3248 19.1861 33.5507 19.1856 34.3073 19.9427L43.9948 29.6302Z" fill="white" />
            </g>
            <defs>
                <clipPath id="clip0_2344_192">
                    <rect width="62" height="62" fill="white" />
                </clipPath>
            </defs>
        </svg>