<svg xmlns="http://www.w3.org/2000/svg" width="65" height="65" viewBox="0 0 65 65" fill="none">
                                <path d="M46.9797 21.5458C46.6821 20.7393 46.2073 20.0093 45.5904 19.4101C44.9912 18.7931 44.2617 18.3183 43.4547 18.0207C42.8002 17.7665 41.817 17.464 40.0061 17.3815C38.0472 17.2922 37.4598 17.2729 32.5005 17.2729C27.5406 17.2729 26.9533 17.2917 24.9948 17.381C23.1839 17.464 22.2002 17.7665 21.5462 18.0207C20.7393 18.3183 20.0093 18.7931 19.4106 19.4101C18.7936 20.0093 18.3188 20.7388 18.0207 21.5458C17.7665 22.2002 17.464 23.1839 17.3815 24.9948C17.2922 26.9533 17.2729 27.5406 17.2729 32.5005C17.2729 37.4598 17.2922 38.0472 17.3815 40.0061C17.464 41.817 17.7665 42.8002 18.0207 43.4547C18.3188 44.2617 18.7931 44.9912 19.4101 45.5904C20.0093 46.2073 20.7388 46.6821 21.5458 46.9797C22.2002 47.2344 23.1839 47.537 24.9948 47.6194C26.9533 47.7087 27.5401 47.7275 32.5 47.7275C37.4603 47.7275 38.0477 47.7087 40.0056 47.6194C41.8165 47.537 42.8002 47.2344 43.4547 46.9797C45.0746 46.3549 46.3549 45.0746 46.9797 43.4547C47.2339 42.8002 47.5365 41.817 47.6194 40.0061C47.7087 38.0472 47.7275 37.4598 47.7275 32.5005C47.7275 27.5406 47.7087 26.9533 47.6194 24.9948C47.537 23.1839 47.2344 22.2002 46.9797 21.5458ZM32.5005 42.0377C27.2326 42.0377 22.9623 37.7678 22.9623 32.5C22.9623 27.2321 27.2326 22.9623 32.5005 22.9623C37.7678 22.9623 42.0382 27.2321 42.0382 32.5C42.0382 37.7678 37.7678 42.0377 32.5005 42.0377ZM42.4152 24.8142C41.1843 24.8142 40.1863 23.8162 40.1863 22.5852C40.1863 21.3543 41.1843 20.3563 42.4152 20.3563C43.6462 20.3563 44.6442 21.3543 44.6442 22.5852C44.6437 23.8162 43.6462 24.8142 42.4152 24.8142Z" fill="#BBC73B" />
                                <path d="M32.5 0C14.5535 0 0 14.5535 0 32.5C0 50.4465 14.5535 65 32.5 65C50.4465 65 65 50.4465 65 32.5C65 14.5535 50.4465 0 32.5 0ZM51.0495 40.1941C50.9593 42.1807 50.6434 43.537 50.1822 44.7242C49.2127 47.231 47.231 49.2127 44.7242 50.1822C43.5375 50.6434 42.1807 50.9588 40.1945 51.0495C38.2045 51.1403 37.5687 51.1621 32.5005 51.1621C27.4318 51.1621 26.7965 51.1403 24.8059 51.0495C22.8198 50.9588 21.463 50.6434 20.2763 50.1822C19.0306 49.7136 17.9029 48.9791 16.9706 48.0294C16.0214 47.0976 15.2869 45.9694 14.8183 44.7242C14.3571 43.5375 14.0412 42.1807 13.951 40.1945C13.8592 38.204 13.8379 37.5682 13.8379 32.5C13.8379 27.4318 13.8592 26.796 13.9505 24.8059C14.0407 22.8193 14.3561 21.463 14.8173 20.2758C15.2859 19.0306 16.0209 17.9024 16.9706 16.9706C17.9024 16.0209 19.0306 15.2864 20.2758 14.8178C21.463 14.3566 22.8193 14.0412 24.8059 13.9505C26.796 13.8597 27.4318 13.8379 32.5 13.8379C37.5682 13.8379 38.204 13.8597 40.1941 13.951C42.1807 14.0412 43.537 14.3566 44.7242 14.8173C45.9694 15.2859 47.0976 16.0209 48.0299 16.9706C48.9791 17.9029 49.7141 19.0306 50.1822 20.2758C50.6439 21.463 50.9593 22.8193 51.05 24.8059C51.1408 26.796 51.1621 27.4318 51.1621 32.5C51.1621 37.5682 51.1408 38.204 51.0495 40.1941Z" fill="#BBC73B" />
                            </svg>