<svg xmlns="http://www.w3.org/2000/svg" width="65" height="65" viewBox="0 0 65 65" fill="none">
                                <g clip-path="url(#clip0_2312_3290)">
                                    <path d="M32.5 65C50.4493 65 65 50.4493 65 32.5C65 14.5507 50.4493 0 32.5 0C14.5507 0 0 14.5507 0 32.5C0 50.4493 14.5507 65 32.5 65Z" fill="url(#paint0_linear_2312_3290)" />
                                    <path fill-rule="evenodd" clip-rule="evenodd" d="M14.7115 32.1569C24.1859 28.029 30.5037 25.3076 33.6648 23.9929C42.6904 20.2389 44.5658 19.5867 45.7881 19.5652C46.057 19.5605 46.6582 19.6271 47.0475 19.9431C47.6252 20.4118 47.6285 21.4292 47.5643 22.1026C47.0752 27.2416 44.9589 39.7126 43.8822 45.4684C43.4266 47.9039 42.5295 48.7206 41.6611 48.8004C39.7739 48.9741 38.3407 47.5531 36.5127 46.3549C33.6523 44.4798 32.0363 43.3126 29.2597 41.483C26.051 39.3685 28.1311 38.2063 29.9598 36.307C30.4384 35.81 38.7539 28.2462 38.9149 27.56C38.9351 27.4742 38.9537 27.1543 38.7637 26.9855C38.5736 26.8166 38.2932 26.8742 38.0908 26.9202C37.8039 26.9853 33.2344 30.0057 24.3822 35.9811C23.0851 36.8718 21.9103 37.3057 20.8577 37.283C19.6972 37.258 17.4651 36.6269 15.8057 36.0875C13.7704 35.4259 12.1528 35.076 12.2937 33.9525C12.3671 33.3671 13.173 32.7687 14.7115 32.1569Z" fill="black" />
                                </g>
                                <defs>
                                    <linearGradient id="paint0_linear_2312_3290" x1="32.5" y1="0" x2="32.5" y2="64.4922" gradientUnits="userSpaceOnUse">
                                        <stop stop-color="#5B9CFE" />
                                        <stop offset="1" stop-color="#229ED9" />
                                    </linearGradient>
                                    <clipPath id="clip0_2312_3290">
                                        <rect width="65" height="65" fill="white" />
                                    </clipPath>
                                </defs>
                            </svg>